<svg fill="white" xmlns="http://www.w3.org/2000/svg" width="538" height="476" viewBox="0 0 538 476">
  <path d="m192.918 54.465C183.507 66.635 178.746 80.608 180 96c2.546 19.648 12.936 33.32 26.696 46.711 4.21 4.1 4.21 4.1 5.304 6.289h2v2h2l.812 1.802c1.198 2.216 2.391 3.619 4.192 5.362l1.744 1.711 1.815 1.75q1.786 1.735 3.566 3.477l1.596 1.541C231 168 231 168 232 170h2l.746 1.736c1.46 2.636 3.162 4.381 5.316 6.487l2.415 2.38 2.523 2.46q2.472 2.42 4.938 4.847l2.214 2.16C254 192 254 192 256 195h2l.645 1.64c1.845 3.213 4.395 5.565 7.043 8.11 3.394 3.323 6.74 6.621 9.812 10.25 3.475 4.089 7.281 7.808 11.095 11.576a164 164 0 0 1 9.542 10.342c2.93 3.275 6.075 6.335 9.22 9.403 3.541 3.475 3.541 3.475 4.643 5.679h2l.688 1.684c1.689 2.981 3.847 5.003 6.312 7.379 2.682 2.592 4.928 4.829 7 7.937h2l.707 1.703c1.612 2.864 3.612 4.77 5.98 7.047 3.084 3.017 6.074 6.031 8.875 9.313 3.226 3.772 6.71 7.226 10.243 10.71 2.635 2.673 5.073 5.48 7.515 8.329 2.203 2.489 4.564 4.793 6.934 7.12 1.81 1.844 3.5 3.756 5.183 5.716A134 134 0 0 0 381 327c3.25 3.2 6.247 6.542 9.219 10 1.855 2.083 3.793 4.043 5.781 6a128 128 0 0 1 7.438 7.938c3.203 3.728 6.629 7.171 10.156 10.593 2.628 2.697 5.079 5.512 7.546 8.355 2.997 3.406 6.117 6.693 9.235 9.989C445.941 396.412 445.941 396.412 449 401h2l.8 1.797c1.244 2.283 2.504 3.677 4.387 5.453a122 122 0 0 1 7.5 7.938l1.75 2.007a825 825 0 0 1 3.75 4.368c1.66 1.642 1.66 1.642 3.59 1.343 13.184-5.375 21.899-23.6 27.223-35.906 6.003-16.097 4.638-33.293-2-49-6.03-12.19-15.354-21.708-25.434-30.607-3.157-2.808-6.249-5.69-9.347-8.562a131 131 0 0 0-8.219-6.956c-13.565-11.745-23.396-31.323-26-48.875-1.527-26.445 5.782-45.846 23.063-65.812 7.204-7.833 15.085-15.324 23.394-21.981L478 154v-2l3-1v-2l1.723-.625c3.084-1.862 4.756-4.434 6.714-7.375l1.197-1.773c3.242-4.889 6.103-9.803 8.366-15.227l1.188-2.734c5.499-14.74 4.593-32.51-1.735-46.746C494.234 65.49 489.245 57.89 482 51l-1.691-1.86-1.809-1.953-1.656-1.832c-1.797-1.49-1.797-1.49-4.149-1.98-4.36 1.011-6.448 4.147-9.32 7.438a432 432 0 0 1-16.43 17.257l-1.854 1.84q-3.725 3.691-7.463 7.367a1998 1998 0 0 0-5.284 5.22l-1.636 1.594C429.434 85.357 428.21 86.674 427 88v2l-3 1v2l-1.676.652c-3.09 1.792-5.178 4.26-7.512 6.91-5.052 5.596-10.25 11.026-15.562 16.376l-2.11 2.148c-13.215 13.244-27.72 20.947-46.577 21.227-12.79-.078-25.938-3.851-35.868-12.266A46.3 46.3 0 0 1 310 122l-1.195-1.793c-5.69-9.882-6.929-22.165-4.805-33.207 2.14-7.048 6.38-14.49 11.684-19.633 1.547-1.29 1.547-1.29 1.316-3.367h2v-2l3-1v-2h2c1.667-1.333 1.667-1.333 3-3v-2l3-1v-2h2v-2c.562-.235 1.124-.47 1.703-.71 2.843-1.597 4.778-3.58 7.047-5.915l2.422-2.477L345 38l-1-3q-22.18-.106-44.36-.155-10.302-.022-20.601-.071c-6.633-.034-13.266-.05-19.9-.059q-3.786-.008-7.573-.032c-3.549-.022-7.098-.025-10.647-.024l-3.128-.032c-17.14.072-33.711 6.624-44.873 19.838M49.28 53.105l-1.706 1.727-1.905 1.905-1.981 2.075-2.037 2.097C33.468 69.467 28.01 77.817 24 89l-.973 2.504c-5.062 15.047-2.83 32.723 3.516 46.957 6 11.78 14.162 20.58 23.978 29.234 2.219 1.958 4.41 3.946 6.604 5.93 2.46 2.22 4.927 4.42 7.438 6.582 16.538 14.395 28.689 33.718 30.622 55.912 1.457 23.72-7.125 42.538-22.443 60.533C59.302 311.85 59.302 311.85 55 314v2l-1.79.813c-13.511 7.255-24.73 24.293-29.456 38.492L23 358l-1.078 3.68c-4.498 18.368.24 36.505 9.744 52.294 4.395 6.675 11.846 16.825 19.834 18.573 3.584-.784 5.031-2.628 7.5-5.297 2.523-2.696 4.903-5.174 7.813-7.453L69 418v-2l3-1v-2h2v-2l1.64-.65c3.201-1.832 5.566-4.336 8.116-6.958l1.711-1.735q1.84-1.865 3.67-3.736a1653 1653 0 0 1 5.847-5.93 5276 5276 0 0 0 16.62-16.863q5.078-5.173 10.187-10.316 1.93-1.95 3.845-3.916c14.249-14.616 30.053-25.57 51.177-26.209 13.073.285 26.901 4.418 36.66 13.485 8.331 9.972 10.573 21.153 9.527 33.828-3.193 17.641-16.235 28.574-28.5 40.5a2247 2247 0 0 0-8.781 8.594l-2.045 1.97-1.863 1.832-1.65 1.602c-1.467 1.581-1.467 1.581-1.161 4.502q17.984.035 35.968.052 8.355.007 16.709.023 8.091.016 16.184.02 3.057.003 6.114.01c10.812.029 21.611-.077 32.417-.478l2.833-.09c17.004-.722 30.81-7.602 42.552-19.94C342.376 408.212 345.95 393.018 345 377c-2.522-19.204-13.656-33.067-27.102-46.118-3.804-3.695-3.804-3.695-4.898-5.882h-2l-.771-1.761c-1.36-2.477-2.868-4.09-4.89-6.06l-2.153-2.12-2.248-2.184a1990 1990 0 0 1-4.41-4.32l-1.977-1.923C293 305 293 305 292 303h-2l-.771-1.761c-1.36-2.477-2.868-4.09-4.89-6.06l-2.153-2.12-2.248-2.184a1990 1990 0 0 1-4.41-4.32l-1.977-1.923C272 283 272 283 271 281h-2l-.684-1.68c-1.705-3.005-3.894-5.05-6.378-7.445-4.84-4.68-4.84-4.68-5.938-6.875h-2l-.652-1.648c-1.812-3.161-4.303-5.48-6.91-7.977-5.318-5.135-5.318-5.135-6.438-7.375h-2l-.684-1.68c-1.705-3.005-3.894-5.05-6.379-7.445-4.84-4.68-4.84-4.68-5.937-6.875h-2l-1-3h-2l-.812-1.802c-1.198-2.216-2.391-3.619-4.192-5.362l-1.744-1.711-1.815-1.75q-1.786-1.735-3.566-3.477l-1.596-1.541C205 212 205 212 204 210h-2l-.652-1.648c-1.812-3.161-4.303-5.48-6.91-7.977-5.318-5.135-5.318-5.135-6.438-7.375h-2l-.645-1.64c-1.845-3.213-4.395-5.565-7.042-8.11-3.353-3.282-6.663-6.533-9.688-10.125-3.9-4.591-8.224-8.75-12.502-12.983-3.64-3.616-7.104-7.302-10.42-11.22-2.94-3.317-6.145-6.37-9.297-9.484-2.656-2.69-5.107-5.504-7.562-8.375-2.192-2.452-4.505-4.752-6.844-7.063-2.87-2.835-5.645-5.671-8.25-8.75-3.38-3.96-7.052-7.59-10.75-11.25-4.275-4.23-8.41-8.484-12.297-13.078-2.94-3.318-6.148-6.374-9.3-9.488a118 118 0 0 1-5.84-6.371c-3.322-3.889-6.925-7.465-10.57-11.045-2.638-2.605-5.1-5.262-7.43-8.143-3.589-4.035-3.589-4.035-8.283-2.77z"/>
</svg>
